<svg width="77" height="22" viewBox="0 0 77 22" fill="none" xmlns="http://www.w3.org/2000/svg">
<path d="M37.0991 12.518C37.0991 16.133 34.5403 17.8211 32.408 17.8211C30.7203 17.8211 29.6938 16.7476 29.5384 16.1279V16.5055C29.5345 16.85 29.3978 17.1789 29.1582 17.4206C28.9185 17.6622 28.5954 17.7971 28.2591 17.7957C27.9216 17.7946 27.5977 17.6596 27.3555 17.419C27.1132 17.1784 26.9714 16.851 26.9598 16.5055V4.7935C26.9714 4.44688 27.1141 4.11845 27.3578 3.87767C27.6015 3.63689 27.9271 3.50263 28.2657 3.50327C28.5979 3.50936 28.9148 3.64725 29.1497 3.8879C29.3847 4.12856 29.5193 4.45322 29.5252 4.7935V8.36789C29.5416 8.43941 29.5483 8.51292 29.5451 8.58632V8.92496C29.9319 7.9903 31.0327 7.23174 32.4146 7.23174C34.5205 7.23682 37.0991 8.98422 37.0991 12.518ZM34.5585 12.518C34.5585 10.4861 33.2212 9.46002 31.9419 9.46002C30.8559 9.46002 29.4211 10.2745 29.4211 12.518C29.4211 14.7615 30.8559 15.5776 31.9419 15.5776C33.2246 15.5776 34.5585 14.5617 34.5585 12.518Z" fill="#1F2937"/>
<path d="M40.3158 17.7788C39.9795 17.7802 39.6563 17.6453 39.4166 17.4036C39.177 17.162 39.0403 16.833 39.0364 16.4886V4.79351C39.0482 4.45652 39.1873 4.13739 39.4242 3.90329C39.6611 3.66918 39.9775 3.53837 40.3067 3.53837C40.6359 3.53837 40.9522 3.66918 41.1892 3.90329C41.4261 4.13739 41.5651 4.45652 41.577 4.79351V16.4903C41.574 16.8316 41.44 17.1581 41.204 17.3992C40.9681 17.6402 40.649 17.7766 40.3158 17.7788Z" fill="#1F2937"/>
<path d="M53.6535 8.58632V16.5106C53.642 16.856 53.5002 17.1835 53.2579 17.4241C53.0156 17.6647 52.6917 17.7997 52.3543 17.8008C52.0183 17.8017 51.6955 17.6667 51.4562 17.4251C51.2169 17.1834 51.0805 16.8548 51.0766 16.5106V16.133C50.9212 16.7476 49.8947 17.8262 48.207 17.8262C46.0747 17.8262 43.5159 16.133 43.5159 12.5231C43.5159 8.9893 46.0945 7.2419 48.207 7.2419C49.5839 7.2419 50.6865 7.99538 51.0766 8.93512V8.59648C51.0839 8.25312 51.2216 7.92623 51.4606 7.68529C51.6995 7.44435 52.0207 7.30837 52.356 7.30624C52.6901 7.31215 53.0097 7.44745 53.2505 7.68494C53.4912 7.92242 53.6352 8.24447 53.6535 8.58632ZM51.1906 12.518C51.1906 10.2745 49.7575 9.46002 48.6715 9.46002C47.3921 9.46002 46.0549 10.4929 46.0549 12.518C46.0549 14.5431 47.3921 15.5776 48.6715 15.5776C49.7542 15.5776 51.1906 14.7632 51.1906 12.518Z" fill="#1F2937"/>
<path d="M63.0936 10.2948L58.267 15.4371H62.6291C62.9198 15.4371 63.1985 15.5554 63.4041 15.7659C63.6096 15.9764 63.725 16.262 63.725 16.5597C63.725 16.8574 63.6096 17.143 63.4041 17.3535C63.1985 17.564 62.9198 17.6823 62.6291 17.6823H57.414C55.8437 17.6823 54.9709 16.0331 56.1528 14.7022L60.9464 9.58024H56.9099C56.7656 9.58248 56.6223 9.55533 56.4883 9.50037C56.3544 9.4454 56.2324 9.36372 56.1295 9.26006C56.0266 9.1564 55.9449 9.03283 55.889 8.89653C55.8331 8.76024 55.8042 8.61392 55.804 8.4661C55.808 8.16879 55.9264 7.88509 56.1335 7.67675C56.3406 7.46841 56.6196 7.35229 56.9099 7.35365H61.7564C63.3085 7.35535 64.2573 9.00285 63.0936 10.2948Z" fill="#1F2937"/>
<path d="M74.8793 12.1014C74.8793 13.1343 74.3172 13.4916 73.2891 13.4916L67.5318 13.4509C67.7715 14.9003 68.8906 15.6758 70.3055 15.6758C71.0031 15.6758 71.3336 15.5167 71.9138 15.2593C72.2626 15.1001 72.5353 14.941 72.8643 14.941C72.9803 14.9354 73.0962 14.9547 73.2046 14.9977C73.3129 15.0407 73.4113 15.1063 73.4935 15.1905C73.5756 15.2746 73.6397 15.3754 73.6817 15.4864C73.7236 15.5974 73.7425 15.7161 73.7371 15.835C73.7371 16.1516 73.6015 16.5123 73.1172 16.9271C72.3998 17.4351 71.4295 17.7737 70.208 17.7737C67.631 17.7737 64.897 16.1448 64.897 12.5247C64.897 8.95036 67.7847 7.22327 69.9947 7.22327C72.2048 7.22327 74.8793 9.02317 74.8793 12.1014ZM67.5318 11.6646H72.3783C72.1849 10.1407 71.0989 9.50065 69.9931 9.50065C68.8873 9.50065 67.707 10.1356 67.5335 11.6646H67.5318Z" fill="#1F2937"/>
<path d="M75.3603 4.57169C75.3605 4.58718 75.3577 4.60255 75.3521 4.61692C75.3464 4.63129 75.3381 4.64437 75.3274 4.6554C75.3168 4.66643 75.3042 4.67519 75.2902 4.68117C75.2763 4.68714 75.2613 4.69022 75.2462 4.69022H74.9685V5.72139C74.9694 5.75765 74.9564 5.79283 74.9323 5.81941C74.9082 5.846 74.8749 5.86186 74.8396 5.86362C74.8035 5.86273 74.7692 5.8473 74.7441 5.82067C74.719 5.79405 74.7052 5.75837 74.7057 5.72139V4.69699H74.4313C74.4006 4.69699 74.3712 4.6845 74.3495 4.66228C74.3278 4.64005 74.3156 4.6099 74.3156 4.57847C74.3156 4.54703 74.3278 4.51688 74.3495 4.49466C74.3712 4.47243 74.4006 4.45994 74.4313 4.45994H75.2462C75.2756 4.45991 75.3039 4.47152 75.3251 4.49234C75.3464 4.51317 75.359 4.5416 75.3603 4.57169Z" fill="#1F2937"/>
<path d="M77 4.57169V5.718C76.9963 5.75197 76.9805 5.78335 76.9557 5.80614C76.9308 5.82893 76.8986 5.84154 76.8653 5.84154C76.8319 5.84154 76.7997 5.82893 76.7749 5.80614C76.75 5.78335 76.7342 5.75197 76.7306 5.718V5.04072L76.3818 5.718C76.3713 5.74011 76.3552 5.75887 76.3351 5.77229C76.315 5.78572 76.2917 5.79329 76.2677 5.7942C76.2438 5.79293 76.2207 5.78522 76.2007 5.77184C76.1807 5.75845 76.1644 5.73988 76.1537 5.718L75.8032 5.04072V5.718C75.8033 5.7538 75.7896 5.78818 75.7652 5.81381C75.7408 5.83943 75.7076 5.85427 75.6727 5.85515C75.637 5.85516 75.6028 5.84076 75.5774 5.81509C75.552 5.78941 75.5376 5.75453 75.5371 5.718V4.57169C75.5367 4.55526 75.5395 4.5389 75.5454 4.5236C75.5512 4.5083 75.5601 4.49438 75.5714 4.48268C75.5826 4.47097 75.5961 4.46172 75.611 4.45549C75.6258 4.44925 75.6417 4.44616 75.6578 4.44639C75.6854 4.4488 75.712 4.45827 75.7351 4.47396C75.7582 4.48964 75.7771 4.51102 75.79 4.53614L76.2677 5.4183L76.7471 4.53783C76.76 4.51271 76.7789 4.49133 76.802 4.47565C76.8251 4.45997 76.8517 4.45049 76.8793 4.44809C76.8952 4.44786 76.911 4.4509 76.9258 4.45703C76.9405 4.46316 76.9539 4.47226 76.9652 4.48378C76.9764 4.49531 76.9853 4.50902 76.9913 4.52412C76.9972 4.53922 77.0002 4.5554 77 4.57169Z" fill="#1F2937"/>
<path fill-rule="evenodd" clip-rule="evenodd" d="M13.8669 1.0752C16.451 2.85309 18.6731 5.12866 20.4093 7.77527C21.8193 9.90873 21.8077 12.0811 20.4143 14.2095C19.5532 15.5355 18.566 16.7708 17.4671 17.8973C16.3596 19.0337 15.1448 20.0546 13.8405 20.9451C11.7809 22.3624 9.66673 22.3505 7.60383 20.9265C5.01392 19.1487 2.78625 16.872 1.04487 14.2231C-0.353538 12.093 -0.345273 9.92227 1.04487 7.78882C2.78876 5.12568 5.02418 2.83754 7.62532 1.05319C9.68656 -0.360648 11.8007 -0.348796 13.8669 1.0752ZM15.8271 14.4787C16.3817 13.9096 16.88 13.2857 17.3148 12.6162C18.0173 11.5444 18.0173 10.4506 17.3082 9.37874C16.4346 8.04673 15.3163 6.90169 14.0155 6.00754C12.9758 5.29131 11.9112 5.28454 10.8748 5.99569C9.56705 6.89192 8.44383 8.0425 7.56891 9.38213C6.86475 10.4556 6.85979 11.5495 7.56891 12.6246C8.44467 13.9589 9.56521 15.1062 10.8682 16.0026C11.9063 16.7189 12.9724 16.7256 14.0089 16.0128C14.6621 15.5631 15.2711 15.0493 15.8271 14.4787Z" fill="#2158FF"/>
</svg>
