<svg width="24" height="24" viewBox="0 0 24 24" fill="none" xmlns="http://www.w3.org/2000/svg">
<path fill-rule="evenodd" clip-rule="evenodd" d="M15.5088 1.17298C18.3987 3.11249 20.8837 5.59494 22.8255 8.48215C24.4023 10.8096 24.3894 13.1794 22.831 15.5013C21.868 16.9478 20.764 18.2955 19.535 19.5244C18.2965 20.764 16.9379 21.8778 15.4792 22.8493C13.1759 24.3953 10.8116 24.3824 8.50459 22.8289C5.60819 20.8896 3.11691 18.4058 1.16945 15.5161C-0.394436 13.1924 -0.385194 10.8243 1.16945 8.49692C3.11971 5.59168 5.61967 3.09553 8.52862 1.14897C10.8338 -0.393402 13.1981 -0.380471 15.5088 1.17298ZM17.7017 15.795C18.3218 15.1741 18.8791 14.4935 19.3654 13.7632C20.151 12.5939 20.151 11.4007 19.358 10.2314C18.3811 8.7783 17.1304 7.52917 15.6756 6.55374C14.5129 5.7724 13.3224 5.76501 12.1634 6.54081C10.7008 7.51851 9.44466 8.77369 8.46621 10.2351C7.67872 11.4062 7.67317 12.5995 8.46621 13.7724C9.44561 15.228 10.6987 16.4795 12.156 17.4575C13.3169 18.2388 14.5092 18.2462 15.6682 17.4685C16.3988 16.978 17.0798 16.4175 17.7017 15.795Z" fill="#1F2937"/>
</svg>
